<svg xmlns="http://www.w3.org/2000/svg" width="29" height="40" viewBox="0 0 29 40" fill="none">
    <path
        d="M20.2451 39.9932C25.1048 39.833 29 35.4215 29 30C29 24.5785 25.1048 20.168 20.2451 20.0078V19.9932C25.1048 19.833 29 15.4215 29 10C29 4.5785 25.1048 0.16798 20.2451 0.0078125V0H0V0.0078125C3.34808 0.15987 6.01855 3.0824 6.01855 6.66699C6.01839 10.2515 3.348 13.1742 0 13.3262V13.3408C3.34808 13.4929 6.01855 16.4154 6.01855 20C6.01855 23.5846 3.3481 26.5081 0 26.6602V26.6748C3.34798 26.8268 6.01839 29.7486 6.01855 33.333C6.01855 36.9176 3.3481 39.8411 0 39.9932V40H20.2451V39.9932Z"
        fill="#CBD5E1" />
</svg>